<svg xmlns="http://www.w3.org/2000/svg" xmlns:xlink="http://www.w3.org/1999/xlink" xmlns:svgjs="http://svgjs.dev/svgjs" version="1.1" viewBox="12.5 12.5 103.2 103.52"><g transform="matrix(0.8046875,0,0,0.8046875,12.599504181013273,12.760752631578946)"><svg xmlns="http://www.w3.org/2000/svg" xmlns:xlink="http://www.w3.org/1999/xlink" viewBox="0 0 95 95" data-background-color="#ffffff" preserveAspectRatio="xMidYMid meet" height="128" width="128"><g id="tight-bounds" transform="matrix(1,0,0,1,-0.09177570093457632,-0.24049999999999727)"><svg viewBox="0 0 95.18355140186915 95.481" height="95.481" width="95.18355140186915"><g><svg viewBox="0 0 95.18355140186915 95.481" height="95.481" width="95.18355140186915"><g><svg viewBox="0 0 95.18355140186915 95.481" height="95.481" width="95.18355140186915"><g id="textblocktransform"><svg viewBox="0 0 95.18355140186915 95.481" height="95.481" width="95.18355140186915" id="textblock"><g><svg viewBox="0 0 95.18355140186915 95.481" height="95.481" width="95.18355140186915"><g><svg viewBox="0 0 95.18355140186915 95.481" height="95.481" width="95.18355140186915"><g><svg xmlns="http://www.w3.org/2000/svg" xmlns:xlink="http://www.w3.org/1999/xlink" version="1.1" x="0" y="0" viewBox="10 9.75 80 80.25" enable-background="new 0 0 100 100" xml:space="preserve" height="95.481" width="95.18355140186915" class="icon-icon-0" data-fill-palette-color="accent" id="icon-0"/></g></svg></g></svg></g></svg></g></svg></g><g/></svg></g><defs/><mask id="f9357add-7e06-4fdc-8d90-fd9912cafbec"><g id="SvgjsG5141"><svg viewBox="0 0 95.18355140186915 95.481" height="95.481" width="95.18355140186915"><g><svg viewBox="0 0 95.18355140186915 95.481" height="95.481" width="95.18355140186915"><g><svg viewBox="0 0 95.18355140186915 95.481" height="95.481" width="95.18355140186915"><g id="SvgjsG5140"><svg viewBox="0 0 95.18355140186915 95.481" height="95.481" width="95.18355140186915" id="SvgjsSvg5139"><g><svg viewBox="0 0 95.18355140186915 95.481" height="95.481" width="95.18355140186915"><g><svg viewBox="0 0 95.18355140186915 95.481" height="95.481" width="95.18355140186915"><g><svg xmlns="http://www.w3.org/2000/svg" xmlns:xlink="http://www.w3.org/1999/xlink" version="1.1" x="0" y="0" viewBox="10 9.75 80 80.25" enable-background="new 0 0 100 100" xml:space="preserve" height="95.481" width="95.18355140186915" class="icon-icon-0" data-fill-palette-color="accent" id="SvgjsSvg5138"><path d="M51.36 20.746c0 2.123-0.073 2.831-0.543 3.393-0.918 1.095-2.265-0.677-5.063-0.677-3.097 0-5.608 2.51-5.608 5.607 0 3.097 2.51 5.608 5.606 5.608 2.8 0 4.146-1.771 5.064-0.677 0.47 0.562 0.543 1.27 0.543 3.393v10.995 0.001-0.001l9.358 0.001c1.372 0 1.565-0.132 1.68-0.397 0.235-0.544-0.246-1.431-0.246-3.475 0-4.306 4.544-7.743 8.531-7.743 3.983 0 8.524 3.263 8.524 7.743 0 2.043-0.482 2.93-0.247 3.475 0.115 0.263 0.31 0.397 1.682 0.397l9.357 0V9.75H51.36l0 0V20.746z" fill="white"/><path d="M20.996 48.39c2.122 0 2.83 0.073 3.393 0.543 1.095 0.918-0.677 2.265-0.677 5.063 0 3.097 2.51 5.608 5.607 5.608 3.097 0 5.607-2.51 5.607-5.606 0-2.8-1.771-4.146-0.677-5.064 0.563-0.47 1.271-0.543 3.393-0.543h10.994 0.002-0.002l0.002-9.358c0-1.372-0.133-1.565-0.398-1.68-0.544-0.235-1.431 0.246-3.475 0.246-4.306 0-7.742-4.544-7.742-8.531 0-3.983 3.262-8.524 7.742-8.524 2.043 0 2.93 0.482 3.475 0.247 0.263-0.115 0.397-0.31 0.397-1.682L48.637 9.75H10v38.64l0 0H20.996z" fill="white"/><path d="M48.64 79.004c0-2.121 0.073-2.83 0.543-3.393 0.918-1.094 2.264 0.678 5.063 0.678 3.096 0 5.607-2.51 5.607-5.607s-2.51-5.607-5.605-5.607c-2.801 0-4.147 1.771-5.065 0.676-0.47-0.563-0.543-1.27-0.543-3.393V51.363v-0.002 0.002l-9.358-0.002c-1.372 0-1.565 0.133-1.68 0.398-0.235 0.545 0.246 1.432 0.246 3.475 0 4.307-4.544 7.742-8.531 7.742-3.983 0-8.524-3.262-8.524-7.742 0-2.043 0.482-2.93 0.247-3.475-0.115-0.262-0.31-0.396-1.682-0.396H10V90h38.64l0 0V79.004z" fill="white"/><path d="M79.004 51.359c-2.122 0-2.83-0.072-3.393-0.543-1.095-0.917 0.677-2.264 0.677-5.062 0-3.097-2.51-5.608-5.607-5.608-3.097 0-5.607 2.51-5.607 5.606 0 2.8 1.771 4.146 0.677 5.064-0.563 0.471-1.271 0.543-3.393 0.543H51.363h-0.002 0.002l-0.002 9.359c0 1.371 0.133 1.564 0.398 1.68 0.544 0.234 1.431-0.246 3.475-0.246 4.306 0 7.742 4.543 7.742 8.531 0 3.983-3.262 8.524-7.742 8.524-2.043 0-2.93-0.482-3.475-0.247-0.263 0.115-0.397 0.31-0.397 1.682L51.363 90H90V51.359l0 0H79.004z" fill="white"/></svg></g></svg></g></svg></g></svg></g></svg></g><g/></svg></g><defs><mask/></defs></svg><rect width="95.18355140186915" height="95.481" fill="black" stroke="none" visibility="hidden"/></g></mask><linearGradient x1="0" x2="1" y1="0.578" y2="0.595" id="f3106e6a-fa9c-4c20-a800-c1cb188ec38d"><stop stop-color="#6ee2f5" offset="0"/><stop stop-color="#6454f0" offset="1"/></linearGradient><rect width="95.18355140186915" height="95.481" fill="url(#f3106e6a-fa9c-4c20-a800-c1cb188ec38d)" mask="url(#f9357add-7e06-4fdc-8d90-fd9912cafbec)" data-fill-palette-color="accent"/></svg><rect width="95.18355140186915" height="95.481" fill="none" stroke="none" visibility="hidden"/></g></svg></g></svg>